<?xml version="1.0" standalone="no"?>
<!DOCTYPE svg PUBLIC "-//W3C//DTD SVG 20010904//EN"
 "http://www.w3.org/TR/2001/REC-SVG-20010904/DTD/svg10.dtd">
<svg version="1.0" xmlns="http://www.w3.org/2000/svg"
 width="1056.000000pt" height="992.000000pt" viewBox="0 0 1056.000000 992.000000"
 preserveAspectRatio="xMidYMid meet">

<g transform="translate(0.000000,992.000000) scale(0.100000,-0.100000)"
fill="#000000" stroke="none">
<path d="M4695 9290 c-3 -5 -35 -10 -70 -10 -42 0 -65 -4 -68 -12 -3 -10 -37
-12 -133 -10 -125 2 -166 -5 -186 -33 -4 -6 -44 -9 -90 -8 -73 2 -86 -1 -106
-20 -20 -19 -33 -22 -91 -19 -57 2 -70 -1 -86 -18 -13 -15 -31 -20 -65 -20
-45 0 -100 -18 -100 -32 0 -5 -20 -8 -45 -8 -46 0 -73 -10 -112 -44 -13 -11
-37 -20 -55 -21 -45 -3 -88 -15 -88 -26 0 -5 -11 -9 -24 -9 -13 0 -34 -8 -47
-19 -13 -10 -39 -21 -57 -24 -54 -10 -62 -13 -74 -25 -7 -7 -18 -12 -25 -12
-7 0 -18 -9 -25 -20 -7 -11 -22 -20 -33 -20 -11 0 -31 -9 -45 -20 -14 -11 -32
-20 -40 -20 -8 0 -26 -9 -40 -20 -14 -11 -34 -20 -46 -20 -11 0 -29 -9 -39
-20 -10 -11 -24 -20 -32 -20 -7 0 -13 -4 -13 -10 0 -5 -9 -10 -20 -10 -11 0
-20 -4 -20 -8 0 -5 -12 -15 -27 -23 -16 -8 -35 -22 -44 -31 -9 -10 -26 -18
-37 -18 -12 0 -37 -13 -55 -30 -19 -16 -40 -30 -46 -30 -6 0 -11 -4 -11 -8 0
-5 -12 -15 -27 -23 -16 -8 -37 -22 -47 -31 -11 -10 -25 -18 -31 -18 -6 0 -24
-13 -40 -30 -16 -16 -34 -30 -40 -30 -6 0 -31 -22 -55 -50 -25 -27 -51 -50
-59 -50 -8 0 -31 -18 -52 -40 -21 -22 -44 -40 -50 -40 -7 0 -94 -82 -193 -183
-100 -100 -219 -218 -265 -262 -46 -44 -95 -96 -107 -115 -13 -19 -40 -55 -59
-80 -19 -25 -46 -61 -59 -80 -13 -19 -33 -44 -45 -54 -11 -11 -21 -23 -21 -27
0 -5 -25 -45 -55 -89 -30 -44 -55 -87 -55 -95 0 -8 -4 -15 -10 -15 -5 0 -10
-6 -10 -12 0 -7 -18 -30 -40 -51 -22 -20 -40 -46 -40 -56 0 -10 -9 -30 -20
-44 -11 -14 -20 -34 -20 -44 0 -11 -11 -30 -25 -43 -14 -13 -25 -29 -25 -36 0
-6 -6 -17 -14 -23 -8 -7 -17 -24 -21 -39 -3 -15 -16 -37 -27 -49 -12 -13 -18
-23 -13 -23 4 0 0 -9 -10 -20 -10 -11 -15 -20 -12 -20 4 0 -7 -26 -23 -57 -17
-32 -30 -63 -30 -70 0 -6 -13 -38 -30 -70 -16 -31 -30 -64 -30 -73 0 -8 -9
-29 -19 -46 -11 -18 -21 -45 -22 -60 -2 -16 -9 -37 -17 -46 -8 -9 -16 -36 -19
-60 -3 -24 -11 -50 -18 -58 -19 -23 -45 -109 -45 -149 -1 -20 -9 -54 -20 -76
-11 -22 -20 -53 -20 -70 0 -16 -9 -48 -20 -70 -14 -28 -19 -62 -20 -116 0 -49
-7 -96 -20 -134 -14 -40 -20 -84 -20 -140 0 -56 -6 -100 -20 -140 -19 -55 -20
-84 -20 -485 0 -401 1 -430 20 -485 15 -44 20 -84 20 -164 0 -89 3 -111 20
-136 16 -24 20 -47 20 -110 0 -63 4 -86 20 -110 13 -20 20 -47 20 -80 0 -33 7
-60 20 -80 11 -17 20 -47 20 -70 0 -23 9 -53 20 -70 11 -16 20 -43 20 -60 0
-16 9 -48 20 -70 11 -22 19 -44 20 -48 0 -4 9 -28 20 -52 11 -24 26 -69 34
-100 9 -30 24 -68 34 -83 11 -15 25 -44 32 -65 6 -21 29 -71 50 -112 21 -41
44 -91 50 -112 7 -21 17 -43 21 -49 5 -6 28 -49 51 -95 38 -77 108 -188 157
-249 11 -14 21 -29 21 -34 0 -5 17 -32 38 -60 21 -28 54 -72 73 -98 155 -212
220 -286 450 -517 185 -184 269 -261 344 -311 28 -18 71 -52 96 -75 25 -23 61
-50 80 -59 19 -9 70 -43 114 -76 86 -63 110 -78 254 -152 51 -26 105 -56 120
-67 26 -18 202 -105 276 -136 22 -9 56 -25 75 -35 20 -9 51 -21 69 -25 18 -4
44 -13 59 -21 15 -8 34 -14 42 -14 8 0 32 -9 53 -20 20 -11 47 -20 60 -20 12
0 39 -9 60 -20 20 -11 51 -20 68 -20 18 0 50 -9 73 -19 23 -10 88 -29 146 -41
58 -12 134 -31 169 -41 35 -11 73 -19 84 -19 11 0 67 -9 126 -20 221 -41 236
-42 646 -37 374 5 457 9 610 36 33 6 87 15 120 20 33 5 89 16 125 24 36 8 88
20 115 26 117 24 190 43 200 51 5 4 36 13 69 19 32 6 64 15 70 20 6 5 27 12
46 16 19 4 51 16 70 26 19 11 45 19 57 19 13 0 40 9 60 20 21 11 43 20 50 20
6 0 47 18 90 40 43 22 84 40 90 40 7 0 41 15 75 33 142 76 181 98 206 115 15
10 41 24 57 32 17 8 62 36 102 62 40 27 76 48 80 48 4 0 31 18 58 40 28 22 55
40 61 40 6 0 31 17 55 38 24 21 67 53 94 72 28 18 75 56 106 84 30 28 82 71
115 96 61 46 333 317 460 456 78 86 170 205 267 346 34 50 82 118 105 152 24
33 53 80 63 103 11 23 36 63 55 89 19 25 40 58 47 72 6 15 24 46 40 70 16 24
33 60 39 80 12 47 29 88 79 184 21 43 39 84 39 91 0 7 9 29 20 50 11 21 28 59
36 85 8 26 22 61 30 79 8 17 14 44 14 60 0 15 9 42 20 58 13 19 20 47 20 78 0
33 8 62 24 90 14 23 30 70 36 104 6 34 17 75 25 90 8 16 15 56 15 93 1 36 8
83 17 105 10 26 18 96 24 195 4 85 13 182 20 215 7 36 13 199 16 412 4 338 3
354 -17 397 -17 38 -20 66 -20 173 0 111 -3 132 -20 158 -16 24 -20 47 -20
110 0 63 -4 86 -20 110 -11 17 -20 44 -20 62 0 44 -25 138 -44 165 -9 12 -16
41 -16 63 0 23 -8 53 -20 70 -11 17 -20 44 -20 60 0 17 -9 44 -20 60 -11 17
-20 39 -20 50 0 11 -7 31 -16 43 -8 12 -24 47 -34 77 -10 30 -26 65 -34 77 -9
12 -16 30 -16 39 0 9 -26 68 -59 130 -32 63 -62 125 -66 139 -4 14 -20 43 -36
66 -15 22 -31 53 -34 67 -4 15 -22 46 -41 69 -19 24 -34 46 -34 50 0 4 -14 27
-30 51 -16 25 -30 47 -30 50 0 10 -117 180 -157 229 -21 26 -60 75 -88 109
-27 35 -69 86 -92 113 -24 28 -67 80 -97 116 -65 79 -341 350 -356 350 -6 0
-34 25 -63 56 -29 31 -77 75 -107 97 -30 22 -84 63 -120 91 -36 28 -81 60
-100 70 -19 11 -60 39 -91 62 -30 23 -75 52 -100 64 -50 25 -52 25 -107 63
-23 15 -50 28 -59 30 -10 1 -25 7 -33 12 -8 6 -22 14 -31 20 -9 5 -35 22 -57
38 -23 15 -50 28 -61 30 -10 2 -26 9 -35 16 -9 7 -16 10 -16 6 0 -5 -8 -1 -17
7 -10 9 -37 22 -61 29 -23 7 -47 18 -53 26 -6 7 -19 13 -28 13 -24 0 -90 25
-103 38 -7 7 -17 12 -24 12 -6 0 -17 7 -24 15 -7 8 -22 15 -34 15 -11 0 -36 9
-54 20 -18 11 -40 20 -50 20 -9 0 -30 9 -47 20 -20 13 -47 20 -79 20 -30 0
-56 6 -66 15 -10 9 -40 19 -68 24 -28 4 -62 15 -76 24 -19 13 -48 17 -111 17
-47 0 -85 3 -85 8 0 16 -58 32 -121 32 -47 0 -70 4 -79 15 -7 8 -16 13 -20 10
-5 -3 -12 -1 -15 5 -4 7 -47 10 -116 8 -76 -2 -112 1 -121 10 -7 7 -42 12 -94
12 -46 0 -86 5 -89 10 -4 6 -87 10 -215 10 -128 0 -211 -4 -215 -10z m162
-396 c7 -10 13 -44 13 -77 l0 -59 -27 5 c-16 4 -53 11 -84 18 -69 15 -119 6
-149 -26 -20 -22 -21 -27 -10 -54 12 -29 82 -71 145 -87 65 -16 149 -73 172
-117 21 -41 20 -130 -1 -179 -45 -105 -201 -152 -381 -115 l-60 13 -7 64 c-4
36 -3 69 2 74 5 5 24 -1 47 -14 29 -18 58 -24 120 -28 81 -4 83 -4 113 26 16
17 30 40 30 51 0 40 -51 80 -146 115 -125 46 -167 75 -194 131 -41 86 -13 184
69 239 60 40 89 46 220 42 97 -3 117 -6 128 -22z m681 -24 c183 -24 279 -78
337 -190 30 -57 25 -183 -11 -294 -24 -75 -37 -97 -77 -138 -26 -26 -53 -48
-59 -48 -6 0 -20 -8 -31 -17 -38 -35 -342 -18 -407 22 -7 4 -7 13 0 25 6 10
19 74 31 142 11 68 25 143 30 168 15 66 39 257 39 308 l0 45 38 -7 c20 -3 70
-11 110 -16z m-1410 -72 c58 -29 133 -113 168 -186 25 -52 27 -68 28 -187 1
-120 -1 -134 -24 -179 -50 -97 -155 -156 -282 -156 -100 0 -166 28 -223 94
-25 29 -45 59 -45 66 0 6 -6 24 -14 38 -24 45 -56 167 -56 216 0 54 33 159 61
194 83 105 276 155 387 100z m2040 -82 c33 -17 173 -71 262 -101 l65 -22 -2
-44 c-3 -62 -11 -89 -27 -89 -7 0 -57 18 -110 41 -54 22 -104 38 -111 35 -14
-5 -55 -89 -55 -113 0 -15 44 -36 123 -60 26 -7 47 -19 47 -26 0 -7 -9 -32
-20 -56 -19 -41 -22 -43 -51 -37 -17 3 -45 12 -62 20 -80 35 -95 29 -127 -48
-31 -78 -26 -93 45 -122 33 -13 86 -29 118 -35 65 -13 72 -28 36 -85 -25 -41
-40 -42 -127 -8 -80 31 -150 57 -215 80 -26 9 -50 21 -54 27 -3 5 4 30 14 56
34 77 63 151 99 251 19 52 39 104 44 115 22 46 60 170 60 195 0 42 9 47 48 26z
m-2773 -132 c17 -7 65 -94 65 -119 0 -12 -13 -15 -57 -15 -96 0 -190 -56 -227
-133 -20 -43 -16 -118 10 -171 8 -16 14 -34 14 -41 0 -22 60 -88 105 -116 58
-36 200 -13 218 35 9 23 -41 124 -63 131 -11 4 -28 4 -38 1 -14 -5 -23 4 -39
37 -12 24 -18 49 -15 55 4 5 43 29 87 52 l79 42 23 -28 c13 -16 23 -33 23 -38
0 -5 18 -46 39 -90 22 -45 49 -102 59 -128 l20 -47 -27 -28 c-37 -39 -132
-101 -183 -119 -24 -8 -71 -18 -106 -21 -147 -14 -263 65 -340 232 -50 108
-39 251 27 343 51 72 166 142 262 161 24 5 45 9 46 10 1 1 9 -2 18 -5z m3622
-277 c15 -13 60 -44 98 -70 133 -89 177 -147 177 -229 -1 -40 -42 -136 -69
-160 -37 -32 -119 -68 -155 -68 -34 0 -38 -3 -48 -37 -6 -21 -17 -86 -24 -146
-7 -59 -15 -109 -17 -112 -6 -5 -97 57 -102 70 -2 6 2 57 9 115 7 58 13 119
14 137 0 33 -21 63 -46 63 -22 0 -70 -56 -110 -127 -20 -35 -39 -63 -42 -63
-4 0 -25 14 -46 30 -22 17 -45 30 -52 30 -28 0 -23 22 14 68 22 26 72 97 113
157 41 61 79 115 85 122 23 24 124 181 124 193 0 20 20 50 35 50 7 0 26 -10
42 -23z m-4214 -94 c18 -20 32 -43 32 -52 0 -8 -19 -26 -42 -40 -101 -62 -153
-103 -153 -120 0 -23 56 -101 73 -101 7 0 22 7 32 15 77 59 115 85 124 85 11
0 61 -73 61 -89 0 -5 -31 -32 -70 -60 -71 -52 -85 -76 -55 -101 8 -7 15 -18
15 -24 0 -14 55 -76 68 -76 11 0 164 113 181 134 8 9 19 16 25 16 13 0 56 -73
56 -94 0 -7 -53 -51 -117 -99 -65 -48 -134 -100 -153 -116 -26 -22 -39 -27
-52 -20 -10 5 -18 15 -18 21 0 6 -12 27 -27 47 -16 20 -32 43 -38 52 -21 35
-80 116 -124 170 -25 31 -53 67 -61 79 -30 46 -112 141 -126 147 -32 12 -9 38
96 108 25 17 50 35 57 40 6 6 28 21 47 35 20 14 50 37 68 53 42 36 62 34 101
-10z m-375 -541 c198 -189 227 -231 220 -321 -5 -72 -28 -119 -87 -178 -75
-76 -181 -103 -267 -67 -36 15 -114 71 -139 100 -5 7 -44 40 -85 75 -41 35
-88 76 -105 92 -16 16 -42 35 -57 43 -16 8 -28 20 -28 27 0 19 95 120 108 116
5 -2 79 -69 162 -149 202 -192 203 -193 264 -187 40 4 55 11 78 36 49 55 50
104 0 156 -24 26 -138 129 -206 188 -12 10 -37 33 -56 50 -19 18 -47 40 -62
50 -16 10 -28 25 -28 33 0 22 81 103 102 101 9 -1 93 -75 186 -165z m5222 112
c63 -29 131 -98 163 -164 33 -67 30 -177 -6 -245 -46 -89 -164 -197 -247 -228
-62 -23 -167 -22 -222 2 -27 11 -67 44 -105 86 -76 82 -93 137 -75 239 17 88
35 121 117 203 124 124 257 162 375 107z m-3770 -395 c0 -29 -16 -56 -70 -119
-88 -104 -226 -296 -257 -360 -7 -14 -21 -37 -30 -52 -10 -14 -34 -52 -53 -84
-46 -76 -48 -78 -101 -159 -26 -38 -55 -86 -65 -105 -21 -38 -29 -50 -119
-190 -34 -52 -72 -113 -85 -135 -29 -51 -51 -86 -136 -215 -38 -57 -71 -109
-74 -115 -3 -5 -32 -50 -65 -98 -33 -48 -69 -102 -79 -120 -40 -65 -118 -182
-130 -192 -6 -5 -24 -25 -39 -44 -35 -42 -86 -77 -126 -86 -17 -3 -33 -11 -36
-16 -9 -14 -35 -11 -35 5 0 12 40 85 95 174 6 9 25 44 43 77 17 33 44 81 59
106 16 26 55 92 88 149 33 56 67 112 75 125 8 13 38 60 65 104 28 45 69 112
92 149 22 37 89 148 148 247 58 99 133 223 165 275 33 52 67 109 77 127 30 52
74 125 109 179 19 29 38 63 44 75 6 13 19 38 30 54 11 17 22 35 26 42 7 14 74
58 159 103 33 17 94 52 135 76 41 24 78 44 83 44 4 0 7 -9 7 -21z m4200 -109
c0 -4 16 -27 35 -51 19 -24 35 -47 35 -51 0 -4 -29 -23 -64 -43 -35 -20 -70
-42 -76 -50 -7 -8 -17 -15 -22 -15 -5 0 -24 -11 -42 -25 -18 -14 -36 -25 -40
-25 -8 0 -103 -65 -131 -90 -11 -10 -30 -21 -42 -24 -53 -16 -54 -59 -3 -114
16 -18 30 -37 30 -43 0 -5 17 -27 37 -50 l37 -40 -30 -24 c-35 -30 -67 -41
-72 -27 -3 11 -102 148 -124 172 -8 8 -32 41 -53 73 -39 57 -39 59 -20 73 11
7 25 17 31 22 6 5 20 13 32 16 12 4 22 12 22 17 0 5 8 13 18 17 18 7 101 65
210 147 37 28 86 62 108 77 23 15 54 38 69 52 24 22 55 26 55 6z m-6287 -70
c59 -46 67 -51 90 -65 65 -40 267 -183 289 -205 34 -33 67 -105 68 -143 0 -52
-53 -149 -110 -199 -30 -27 -59 -48 -66 -48 -7 0 -19 -3 -28 -6 -15 -6 -76 67
-76 91 0 7 20 18 44 24 90 22 126 117 69 179 -25 27 -186 142 -199 142 -3 0
-17 8 -32 19 -74 51 -145 93 -172 102 -16 6 -30 15 -30 21 0 10 88 128 96 128
2 0 28 -18 57 -40z m4485 -108 c4 -13 -102 -122 -118 -122 -5 0 -11 -24 -15
-52 -14 -121 -18 -138 -26 -138 -5 0 -9 8 -9 18 0 12 -7 7 -21 -15 -25 -39
-62 -50 -96 -27 -23 15 -25 21 -20 68 5 47 39 130 69 166 19 23 99 85 133 104
35 18 96 17 103 -2z m-250 -431 c11 -32 2 -41 -43 -41 -13 0 -29 -8 -34 -17
-8 -14 -10 -10 -11 23 0 47 14 64 51 64 21 0 29 -7 37 -29z m-1148 -186 c0 -7
-51 -88 -59 -95 -4 -3 -37 -52 -75 -110 -38 -58 -91 -136 -118 -175 -26 -38
-61 -94 -76 -123 -23 -45 -24 -54 -12 -62 9 -6 173 -10 385 -10 298 0 374 3
390 14 23 16 49 8 83 -23 22 -22 29 -55 13 -65 -4 -3 -37 0 -72 7 -82 17 -824
6 -842 -12 -6 -6 -10 -33 -8 -61 2 -53 -8 -62 -36 -35 -8 9 -20 14 -27 12 -19
-6 -80 -105 -164 -267 -44 -86 -91 -176 -105 -200 -59 -108 -125 -237 -132
-260 -8 -25 -95 -119 -95 -102 0 5 9 29 20 53 11 24 20 57 20 73 0 23 46 121
120 254 5 9 21 44 36 77 14 33 34 78 45 100 103 221 134 293 126 301 -3 3 -54
1 -114 -5 -59 -6 -193 -18 -298 -27 -104 -8 -194 -19 -199 -24 -6 -6 -5 -19 2
-35 17 -37 15 -63 -8 -92 -17 -22 -20 -41 -20 -119 0 -56 -4 -94 -10 -94 -6 0
-10 69 -10 186 l0 185 32 27 c17 15 40 32 50 37 15 9 182 107 228 135 8 5 40
24 70 41 30 18 78 46 105 64 28 18 69 43 93 56 79 44 87 48 102 58 62 42 97
64 114 72 12 5 35 18 51 29 17 11 39 24 50 30 11 6 34 19 50 30 17 10 66 39
110 64 44 25 96 56 115 70 32 23 70 34 70 21z m3254 -219 c-16 -13 -31 -22
-34 -20 -2 3 9 16 25 29 39 30 46 23 9 -9z m-1004 -431 c-7 -8 -17 -15 -22
-15 -6 0 -5 7 2 15 7 8 17 15 22 15 6 0 5 -7 -2 -15z m-73 -90 c-4 -8 -11 -15
-17 -15 -14 0 -13 27 3 33 16 6 21 1 14 -18z m-2322 -323 c109 -55 145 -172
89 -290 -14 -30 -30 -60 -35 -66 -5 -6 -19 -22 -30 -36 -11 -14 -56 -62 -100
-107 -43 -45 -79 -87 -79 -92 0 -14 1 -14 138 -11 76 1 117 -2 127 -10 23 -19
19 -87 -4 -100 -12 -6 -103 -10 -225 -10 -193 0 -206 1 -216 19 -11 22 -12 77
-2 103 4 9 52 63 106 120 148 153 198 220 204 273 4 39 1 47 -26 75 -50 49
-134 34 -167 -30 -9 -17 -21 -30 -29 -30 -18 0 -99 44 -103 56 -11 32 93 134
157 155 43 14 152 4 195 -19z m552 4 c77 -36 114 -80 151 -179 18 -49 22 -80
22 -180 0 -107 -3 -131 -27 -196 -33 -90 -84 -145 -157 -166 -60 -18 -83 -19
-144 -3 -87 22 -133 64 -179 165 -35 80 -44 228 -18 337 46 194 201 292 352
222z m-1967 -51 c22 -23 22 -25 6 -50 -19 -29 -33 -31 -58 -8 -22 20 -23 41
-1 65 21 23 25 23 53 -7z m-1270 -20 c9 -11 9 -22 1 -46 -6 -18 -11 -38 -11
-45 0 -8 33 -31 73 -53 39 -22 87 -52 106 -66 41 -30 49 -30 157 -8 76 16 85
16 99 2 24 -24 9 -65 -31 -88 -19 -11 -34 -27 -34 -35 0 -15 57 -46 85 -46 16
0 81 -34 95 -49 3 -4 25 -17 50 -30 25 -13 64 -37 88 -53 50 -32 55 -33 72
-13 16 19 59 19 66 0 9 -21 -17 -72 -42 -84 -17 -7 -32 -4 -65 13 -207 107
-286 150 -299 161 -8 7 -46 25 -85 41 -38 15 -113 55 -165 89 -52 34 -106 68
-120 75 -45 23 -70 52 -70 83 0 27 -2 29 -27 23 -16 -4 -48 -9 -72 -13 l-43
-6 7 34 c8 33 65 113 88 123 25 10 65 5 77 -9z m3850 -404 c5 -11 10 -28 10
-38 0 -15 -4 -14 -20 7 -21 27 -26 50 -10 50 5 0 14 -9 20 -19z m30 -77 c0 -8
-4 -12 -10 -9 -5 3 -10 10 -10 16 0 5 5 9 10 9 6 0 10 -7 10 -16z m50 -90 c0
-8 -4 -12 -10 -9 -5 3 -10 13 -10 21 0 8 5 12 10 9 6 -3 10 -13 10 -21z m-515
-444 c10 -31 35 -38 105 -29 59 7 170 11 245 10 27 -1 28 -2 13 -17 -10 -11
-46 -19 -104 -25 -268 -27 -307 -39 -388 -116 -62 -59 -67 -55 -35 25 13 31
12 35 -7 51 l-22 17 35 34 c29 29 101 64 140 69 6 0 15 -8 18 -19z m-3574 -31
c45 -31 38 -49 -19 -49 -37 0 -59 -7 -99 -34 -28 -19 -54 -31 -57 -28 -18 17
-3 64 29 97 29 29 43 35 76 35 25 0 52 -8 70 -21z m5219 -204 c8 -10 31 -15
66 -15 41 0 54 -4 54 -15 0 -20 -41 -20 -108 0 -32 10 -52 21 -52 30 0 19 24
19 40 0z m43 -130 c-3 -9 -8 -14 -10 -11 -3 3 -2 9 2 15 9 16 15 13 8 -4z
m-451 -58 c-3 -26 1 -39 11 -43 21 -8 39 -55 41 -106 1 -35 6 -45 26 -55 37
-18 31 -38 -13 -41 -21 -2 -59 -16 -84 -32 -25 -16 -62 -35 -82 -41 -20 -6
-46 -20 -58 -31 -38 -35 -116 -3 -127 53 -3 18 -12 40 -20 48 -7 9 -16 34 -19
56 -4 23 -15 47 -28 57 -32 27 -18 49 31 46 29 -1 46 4 63 20 13 12 27 22 31
22 4 0 14 6 22 14 7 8 43 18 80 21 56 6 67 11 77 32 7 16 17 23 31 21 18 -3
20 -9 18 -41z m-5106 -94 c38 -52 65 -72 94 -73 22 -1 20 -3 -15 -21 -22 -11
-43 -26 -47 -33 -5 -8 -21 -17 -36 -21 -35 -7 -96 -68 -115 -114 -8 -19 -21
-36 -28 -37 -8 -1 -22 -5 -31 -9 -14 -6 -18 -2 -18 18 0 17 -15 41 -44 71 -39
39 -44 48 -37 73 7 25 12 29 65 34 66 7 101 34 112 83 17 78 56 89 100 29z
m254 -39 c0 -2 -9 -4 -21 -4 -11 0 -18 4 -14 10 5 8 35 3 35 -6z m2540 -179
c0 -14 -124 -123 -167 -146 -29 -16 -40 -5 -22 20 16 23 167 141 180 141 5 0
9 -7 9 -15z m2055 -115 c0 -18 -6 -26 -23 -28 -27 -4 -40 22 -22 44 19 22 45
13 45 -16z m-1797 -18 c23 -30 14 -77 -24 -124 -138 -166 -302 -250 -364 -188
-24 24 -24 29 -5 56 8 13 30 24 54 28 21 3 41 13 45 21 3 8 12 15 19 15 8 0
22 9 32 20 10 11 23 20 29 20 7 0 19 8 27 18 9 9 26 24 39 32 33 22 42 32 72
84 28 48 48 52 76 18z m485 -249 c65 -47 176 -188 189 -240 9 -36 -6 -27 -43
24 -41 58 -67 84 -98 101 -25 13 -61 8 -61 -9 0 -5 -9 -9 -19 -9 -11 0 -22 -4
-25 -9 -3 -5 -15 -7 -26 -4 -28 7 -123 -43 -181 -94 -26 -24 -66 -51 -90 -61
-43 -18 -43 -19 -20 -31 12 -7 65 -15 117 -18 84 -5 92 -8 84 -23 -6 -11 -26
-19 -56 -23 -26 -2 -49 -9 -53 -14 -11 -18 -50 -33 -84 -33 -41 0 -55 -15 -60
-60 -3 -25 -13 -40 -38 -57 -45 -30 -59 -51 -59 -85 0 -26 -23 -48 -49 -48
-18 0 -51 39 -45 53 6 17 -10 31 -53 45 l-33 11 0 -35 c0 -30 5 -44 29 -90 3
-6 14 -23 25 -38 10 -15 16 -30 12 -34 -4 -3 -11 0 -16 8 -5 8 -16 24 -25 35
-9 11 -25 34 -36 50 -10 17 -24 39 -31 50 -7 11 -21 31 -30 44 -26 35 -24 123
4 180 27 56 83 138 115 168 16 15 23 33 23 57 0 26 4 34 14 30 7 -3 22 5 32
18 30 37 75 68 99 68 12 0 28 6 34 14 7 8 28 17 48 21 36 6 65 20 94 42 27 22
92 32 182 29 79 -3 93 -7 130 -33z m1617 9 c0 -15 -56 -62 -73 -62 -22 0 -22
2 11 38 25 29 62 43 62 24z m-160 -77 c0 -2 -9 -9 -20 -15 -22 -12 -44 -5 -35
11 6 9 55 13 55 4z m1178 -116 c18 -17 30 -35 26 -40 -3 -5 -23 -18 -44 -29
-80 -41 -129 -144 -81 -170 30 -16 60 -12 115 14 135 65 146 69 196 64 120
-12 173 -131 115 -262 -27 -61 -96 -136 -144 -155 -25 -11 -33 -10 -55 5 -15
9 -31 25 -37 35 -8 16 -3 20 31 30 46 14 115 83 126 124 9 34 -9 72 -41 87
-29 13 -76 1 -160 -41 -67 -33 -171 -41 -210 -15 -70 46 -94 141 -55 222 26
53 136 162 164 162 11 0 36 -14 54 -31z m-2575 9 c15 -7 27 -20 27 -29 0 -9 7
-22 15 -29 8 -7 15 -28 15 -48 l0 -36 -29 28 c-17 16 -40 34 -52 40 -15 7 -23
21 -24 41 -3 49 4 53 48 33z m1141 -28 c25 -11 58 -20 75 -20 20 0 32 -6 35
-18 4 -11 24 -23 51 -30 52 -14 56 -26 15 -47 -36 -19 -97 -19 -141 -1 -19 7
-60 17 -91 20 -64 8 -77 18 -54 42 19 18 19 20 6 45 -24 45 18 49 104 9z
m-4073 -99 c105 -124 113 -139 117 -216 4 -66 2 -73 -30 -119 -41 -62 -102
-95 -173 -96 -65 0 -114 25 -166 84 -23 26 -49 46 -61 46 -11 0 -46 -20 -78
-45 -32 -25 -64 -45 -72 -45 -7 0 -23 19 -36 43 l-23 42 33 27 c18 15 43 36
56 48 12 11 25 20 27 20 6 0 121 88 145 110 9 8 29 24 44 35 45 32 75 57 114
97 21 20 40 36 43 35 3 -1 30 -31 60 -66z m4388 -30 c8 -5 11 -16 7 -26 -5
-15 -16 -17 -67 -12 -84 7 -94 21 -27 37 46 11 71 11 87 1z m-1541 -54 c2 -10
-3 -17 -12 -17 -10 0 -16 9 -16 21 0 24 23 21 28 -4z m-78 -93 c0 -33 -33 -30
-38 4 -3 17 2 22 17 22 16 0 21 -6 21 -26z m-120 -84 c0 -11 -6 -20 -13 -20
-19 0 -27 10 -20 26 8 21 33 17 33 -6z m-115 -64 c14 -21 12 -56 -4 -56 -3 0
-19 11 -36 24 -25 20 -28 26 -16 40 19 22 38 20 56 -8z m2588 2 c15 -7 27 -16
27 -20 0 -5 6 -8 13 -8 8 0 38 -17 68 -37 30 -21 67 -45 84 -53 37 -19 174
-98 237 -136 26 -16 46 -33 45 -38 -2 -6 -19 -23 -39 -39 -32 -25 -39 -27 -59
-16 -13 6 -26 16 -29 20 -4 5 -20 12 -37 15 -28 6 -38 0 -87 -46 -31 -29 -58
-61 -62 -72 -3 -12 4 -39 20 -70 14 -27 26 -54 26 -60 0 -14 -53 -68 -66 -68
-7 0 -17 12 -23 28 -11 29 -75 150 -88 167 -5 6 -16 26 -25 45 -31 62 -89 164
-96 170 -12 8 -62 114 -62 130 0 19 89 100 110 100 9 0 28 -6 43 -12z m-4800
-51 c15 -17 27 -32 27 -34 0 -4 -68 -69 -284 -273 -50 -47 -103 -98 -118 -113
l-27 -28 -36 35 c-19 19 -35 37 -35 39 0 3 79 85 176 183 96 99 187 194 201
211 22 28 28 31 47 21 11 -6 33 -25 49 -41z m2327 -62 c0 -8 -7 -15 -15 -15
-16 0 -20 12 -8 23 11 12 23 8 23 -8z m-2180 -77 c14 -13 50 -42 80 -65 30
-23 77 -63 104 -88 l48 -47 -23 -26 c-13 -15 -27 -31 -30 -35 -4 -5 -42 18
-84 52 -43 34 -85 61 -94 61 -22 0 -71 -64 -71 -92 1 -16 17 -35 55 -63 30
-22 55 -44 55 -48 0 -14 -41 -67 -52 -67 -5 0 -33 18 -60 40 -55 43 -85 50
-111 23 -74 -78 -85 -113 -44 -134 12 -7 31 -22 43 -34 11 -12 25 -24 30 -26
5 -2 26 -15 47 -28 37 -23 37 -24 20 -43 -36 -40 -50 -41 -90 -5 -21 19 -80
64 -130 101 -51 37 -93 74 -93 82 0 8 4 14 8 14 5 0 67 73 138 163 161 201
182 229 194 261 12 32 28 33 60 4z m4388 -145 c65 -48 92 -123 75 -205 -12
-61 -3 -74 71 -112 31 -16 59 -32 61 -37 3 -4 19 -10 35 -14 42 -9 45 -20 13
-49 -34 -32 -58 -33 -120 -2 -151 75 -177 81 -194 42 -13 -27 -4 -47 61 -136
l40 -55 -32 -27 c-18 -16 -37 -28 -44 -28 -6 0 -25 21 -42 48 -17 26 -57 81
-89 122 -87 111 -223 298 -223 308 0 16 183 141 235 160 43 16 122 8 153 -15z
m-3994 -148 c20 -14 40 -25 43 -25 13 0 109 -70 134 -97 53 -58 59 -73 59
-160 0 -74 -4 -90 -30 -141 -46 -85 -83 -126 -141 -157 -44 -23 -64 -27 -130
-26 -73 1 -108 7 -119 21 -3 4 -18 13 -35 22 -29 14 -127 68 -133 73 -1 1 13
26 33 55 19 28 35 56 35 60 0 8 123 227 137 245 5 6 24 43 43 82 22 45 41 73
51 73 9 0 33 -11 53 -25z m3503 -93 c14 -9 33 -56 33 -81 0 -14 -11 -19 -49
-24 -64 -8 -120 -37 -151 -79 -22 -29 -25 -43 -24 -113 0 -77 2 -82 42 -141
53 -79 97 -107 164 -105 38 0 59 7 84 26 39 30 44 60 16 96 -10 13 -21 32 -25
41 -3 10 -19 18 -39 20 -39 4 -69 48 -48 73 17 20 99 65 119 65 10 -1 25 -22
39 -53 35 -79 57 -128 77 -170 l18 -38 -36 -37 c-44 -45 -123 -87 -194 -103
-78 -18 -168 8 -225 66 -50 50 -87 106 -95 147 -3 16 -10 31 -14 34 -17 10
-10 132 11 186 30 81 111 148 215 179 72 21 67 20 82 11z m-3019 -161 c26 -10
78 -31 115 -47 147 -59 191 -157 124 -273 -26 -43 -38 -54 -98 -86 -26 -13
-49 -30 -51 -37 -3 -7 -2 -62 1 -121 3 -60 5 -110 3 -111 -1 -2 -20 2 -42 7
-37 10 -39 13 -45 61 -13 113 -28 192 -37 204 -16 19 -68 15 -75 -5 -3 -10
-12 -25 -19 -33 -7 -8 -19 -41 -27 -73 -9 -33 -18 -61 -21 -65 -5 -4 -76 14
-99 26 -4 2 0 16 9 30 9 14 25 51 35 81 10 31 37 108 59 171 76 209 80 223 80
257 0 40 17 43 88 14z m2551 -93 c9 -37 8 -45 -6 -55 -9 -7 -24 -13 -33 -13
-16 0 -119 -36 -128 -45 -9 -9 -3 -85 9 -107 11 -21 41 -21 120 0 45 12 57 5
65 -35 6 -30 5 -31 -60 -53 -83 -27 -92 -42 -70 -117 20 -70 32 -86 58 -80 32
7 139 46 158 57 36 21 48 12 48 -34 0 -42 -2 -45 -32 -51 -47 -10 -157 -45
-195 -61 -17 -8 -44 -17 -60 -20 -27 -5 -28 -4 -46 63 -41 157 -46 175 -55
186 -8 11 -33 88 -66 203 -8 28 -20 61 -27 72 -7 12 -11 24 -8 27 3 3 63 25
134 50 70 24 130 47 133 50 3 3 15 5 27 5 18 0 25 -9 34 -42z m-1893 -108 c17
0 36 -6 42 -12 6 -8 12 -129 14 -310 l4 -298 -43 0 c-40 0 -43 2 -38 23 3 12
2 45 -3 72 -7 49 -8 50 -57 67 -28 9 -73 17 -102 17 l-52 1 -26 -52 c-15 -29
-32 -56 -38 -60 -10 -6 -86 0 -95 7 -2 2 7 20 20 42 14 21 77 145 141 275 65
130 123 238 130 241 6 2 25 0 42 -5 16 -4 44 -8 61 -8z m1432 -25 c1 -16 14
-97 27 -178 14 -82 30 -192 35 -245 6 -53 13 -104 15 -113 4 -12 -2 -19 -21
-23 -24 -6 -38 4 -138 107 -61 62 -126 130 -144 150 -39 43 -49 45 -62 13 -8
-23 11 -262 25 -297 8 -20 2 -24 -45 -33 l-36 -6 -18 122 c-9 68 -26 164 -36
213 -40 191 -48 240 -40 249 5 4 29 11 54 13 49 6 57 1 111 -68 27 -35 125
-148 152 -176 12 -13 31 -23 43 -23 18 0 20 4 14 43 -3 23 -17 91 -30 152 -13
60 -21 112 -16 116 9 9 50 17 82 15 20 -1 26 -7 28 -31z m-878 -43 l65 -17 -3
-49 c-1 -27 -4 -52 -7 -54 -2 -3 -36 6 -75 18 -83 27 -126 20 -150 -22 -13
-25 -13 -29 6 -55 19 -26 72 -62 121 -83 12 -5 40 -26 62 -46 40 -35 41 -38
41 -100 0 -76 -16 -118 -59 -159 -32 -30 -34 -30 -144 -30 -103 0 -115 2 -144
24 -33 25 -42 57 -27 96 6 14 10 13 34 -10 33 -32 140 -46 190 -25 75 31 47
132 -49 175 -123 56 -167 114 -159 207 10 127 122 175 298 130z"/>
<path d="M5544 8719 c-14 -24 -84 -351 -84 -396 0 -42 31 -57 107 -51 107 9
168 109 168 275 0 84 -2 94 -25 118 -44 48 -148 82 -166 54z"/>
<path d="M3928 8672 c-20 -10 -47 -31 -60 -47 -21 -26 -23 -40 -23 -130 1
-104 13 -143 69 -228 44 -65 145 -84 205 -39 48 36 66 80 64 157 -2 127 -62
252 -136 286 -52 23 -72 23 -119 1z"/>
<path d="M7005 8113 c-14 -15 -25 -31 -25 -34 0 -3 -14 -24 -30 -45 -44 -54
-38 -83 23 -113 47 -23 50 -23 92 -7 105 41 107 158 3 212 -35 18 -33 19 -63
-13z"/>
<path d="M7495 7656 c-94 -55 -186 -142 -206 -194 -15 -38 -11 -129 6 -146 8
-8 15 -19 15 -24 0 -5 18 -17 39 -27 46 -20 141 -14 162 11 6 8 17 14 25 14
22 0 119 102 142 151 43 88 19 185 -53 215 -40 17 -102 17 -130 0z"/>
<path d="M5146 5301 c-17 -11 -39 -42 -52 -73 -20 -45 -23 -71 -24 -171 0
-129 11 -171 57 -219 21 -22 36 -28 68 -28 79 0 115 70 123 237 5 121 -8 181
-52 236 -30 37 -81 45 -120 18z"/>
<path d="M6540 3861 c-14 -5 -45 -20 -68 -35 -33 -21 -42 -32 -42 -55 0 -60
57 -61 100 -2 25 36 64 41 80 11 14 -26 -19 -60 -59 -60 -31 0 -61 -22 -61
-44 0 -7 -9 -25 -21 -40 -13 -17 -18 -33 -14 -47 10 -31 54 -22 75 16 12 21
30 34 66 45 115 35 150 138 66 195 -37 25 -75 30 -122 16z"/>
<path d="M4585 2694 c-17 -12 -18 -16 -5 -24 8 -5 19 -5 26 0 6 6 13 7 17 4 3
-3 3 3 0 15 -6 25 -11 25 -38 5z"/>
<path d="M2149 2787 c-15 -12 -39 -31 -54 -42 -67 -48 -69 -58 -17 -108 54
-52 99 -52 153 2 49 48 53 93 13 140 -30 37 -59 39 -95 8z"/>
<path d="M7387 2453 c-10 -9 -8 -48 2 -58 5 -6 25 -39 45 -75 43 -81 68 -89
115 -35 17 20 31 42 31 49 0 13 -31 46 -43 46 -4 0 -34 18 -66 40 -59 40 -72
46 -84 33z"/>
<path d="M6936 2151 c-46 -31 -50 -46 -25 -89 68 -111 93 -124 147 -71 27 27
32 39 32 79 0 42 -4 52 -31 74 -37 31 -82 34 -123 7z"/>
<path d="M3097 1958 c-8 -13 -37 -60 -65 -105 -29 -45 -52 -86 -52 -90 0 -4
-14 -28 -30 -52 -40 -58 -39 -78 6 -97 92 -38 146 -31 205 29 78 81 111 208
70 271 -41 62 -109 84 -134 44z"/>
<path d="M3612 1728 c-21 -28 -52 -112 -52 -145 0 -39 24 -53 95 -53 40 0 47
4 70 37 42 63 29 125 -35 158 -35 18 -64 19 -78 3z"/>
<path d="M4178 1493 c-27 -32 -88 -171 -82 -187 3 -9 18 -19 33 -22 14 -3 34
-8 44 -11 9 -2 26 -1 37 2 18 6 20 15 20 105 0 54 -3 105 -6 114 -8 21 -27 20
-46 -1z"/>
</g>
</svg>
